<svg xmlns="http://www.w3.org/2000/svg" xmlns:xlink="http://www.w3.org/1999/xlink" width="500" zoomAndPan="magnify" viewBox="0 0 375 374.999991" height="500" preserveAspectRatio="xMidYMid meet" version="1.0"><defs><g/><clipPath id="c8844b45bb"><path d="M 75 0 L 300 0 C 341.421875 0 375 33.578125 375 75 L 375 300 C 375 341.421875 341.421875 375 300 375 L 75 375 C 33.578125 375 0 341.421875 0 300 L 0 75 C 0 33.578125 33.578125 0 75 0 Z M 75 0 " clip-rule="nonzero"/></clipPath></defs><g clip-path="url(#c8844b45bb)"><rect x="-37.5" width="450" fill="#f5f5f5" y="-37.499999" height="449.999989" fill-opacity="1"/></g><path stroke-linecap="butt" transform="matrix(0.75, 0, 0, 0.75, 83.70117, 75.500021)" fill="none" stroke-linejoin="miter" d="M 11.976566 49.786434 C 11.976566 42.145809 11.30469 35.895808 9.96094 31.036433 C 8.658857 26.130183 6.226565 21.901016 2.669273 18.338515 L 87.434904 18.338515 C 93.856779 18.338515 98.976571 20.338515 102.799488 24.328099 C 106.617197 28.322891 110.023447 34.593725 113.018239 43.145809 C 116.054697 51.692684 119.486989 62.807268 123.304698 76.479144 C 127.122406 90.145812 132.247407 106.598938 138.669282 125.822897 C 145.049491 106.598938 150.14845 90.145812 153.966158 76.479144 C 157.789075 62.807268 161.216159 51.692684 164.252617 43.145809 C 167.294284 34.593725 170.721368 28.322891 174.539076 24.328099 C 178.356785 20.338515 183.460952 18.338515 189.841161 18.338515 L 274.148458 18.338515 C 270.585957 21.901016 268.138041 26.130183 266.789082 31.036433 C 265.445332 35.895808 264.773457 42.145809 264.773457 49.786434 L 264.773457 253.557281 C 264.773457 261.192698 265.445332 267.463532 266.789082 272.369782 C 268.138041 277.229157 270.585957 281.442699 274.148458 284.999991 L 184.825535 284.999991 C 188.34116 281.442699 190.773452 277.229157 192.117202 272.369782 C 193.460952 267.463532 194.138036 261.192698 194.138036 253.557281 L 194.138036 98.348937 C 194.138036 94.270812 193.898452 89.973937 193.419286 85.458311 C 192.986994 80.901019 192.096369 77.062478 190.752619 73.937477 C 189.450536 70.812477 187.27866 69.249977 184.242202 69.249977 C 181.768243 69.249977 179.007826 72.203102 175.971368 78.104144 C 172.976576 83.96352 169.830743 91.77602 166.533867 101.541646 C 163.231784 111.307271 159.934909 122.197897 156.638033 134.22394 C 153.382825 146.203107 150.236991 158.333316 147.195324 170.614567 C 144.549491 181.812484 142.007824 192.619777 139.580741 203.036444 C 137.195324 213.411445 134.89324 222.781237 132.679698 231.161446 C 130.466157 239.49478 128.184906 246.067697 125.841156 250.885406 C 123.544281 255.661448 121.070323 258.046864 118.419281 258.046864 C 116.075531 258.046864 113.429697 255.442698 110.476572 250.234364 C 107.570322 244.984364 104.554697 238.041655 101.429696 229.401029 C 98.346363 220.765612 95.117196 211.260403 91.731779 200.885402 C 88.346362 190.468735 84.960945 180.119776 81.575528 169.833317 C 80.533862 166.619775 79.033862 161.999983 77.080736 155.968733 C 75.127611 149.890607 72.85157 143.078107 70.247403 135.526023 C 67.684903 127.973939 64.929694 120.333314 61.976569 112.609355 C 59.070319 104.885396 56.138027 97.744771 53.19011 91.187478 C 50.278651 84.593728 47.44011 79.296853 44.658859 75.307269 C 41.924484 71.27081 39.471359 69.249977 37.304692 69.249977 C 34.481775 69.249977 32.356775 70.812477 30.924483 73.937477 C 29.492192 77.062478 28.5599 80.901019 28.1224 85.458311 C 27.690108 89.973937 27.471358 94.270812 27.471358 98.348937 C 27.471358 115.40623 29.513025 130.791648 33.59115 144.510399 C 37.674484 158.182275 42.726568 170.5729 48.763026 181.682276 C 54.835943 192.791652 60.851569 202.927069 66.794277 212.08332 C 72.742195 221.244779 77.752612 229.859363 81.835945 237.93228 C 85.955737 246.005197 88.018237 253.880197 88.018237 261.56249 C 88.018237 269.723949 85.023445 275.666657 79.033862 279.401032 C 73.085945 283.135408 66.210944 284.999991 58.398444 284.999991 L 2.669273 284.999991 C 6.226565 281.442699 8.658857 277.229157 9.96094 272.369782 C 11.30469 267.463532 11.976566 261.192698 11.976566 253.557281 Z M 11.976566 49.786434 " stroke="#31416a" stroke-width="20.000025" stroke-opacity="1" stroke-miterlimit="4"/><g fill="#9baad3" fill-opacity="1"><g transform="translate(83.70117, 289.250007)"><g><path d="M 9 -176.40625 C 9 -182.132812 8.5 -186.832031 7.5 -190.5 C 6.5 -194.164062 4.664062 -197.332031 2 -200 L 65.59375 -200 C 70.394531 -200 74.226562 -198.5 77.09375 -195.5 C 79.96875 -192.5 82.535156 -187.796875 84.796875 -181.390625 C 87.066406 -174.992188 89.632812 -166.660156 92.5 -156.390625 C 95.363281 -146.128906 99.195312 -133.800781 104 -119.40625 C 108.800781 -133.800781 112.632812 -146.128906 115.5 -156.390625 C 118.363281 -166.660156 120.925781 -174.992188 123.1875 -181.390625 C 125.457031 -187.796875 128.023438 -192.5 130.890625 -195.5 C 133.765625 -198.5 137.601562 -200 142.40625 -200 L 205.59375 -200 C 202.925781 -197.332031 201.09375 -194.164062 200.09375 -190.5 C 199.09375 -186.832031 198.59375 -182.132812 198.59375 -176.40625 L 198.59375 -23.59375 C 198.59375 -17.863281 199.09375 -13.164062 200.09375 -9.5 C 201.09375 -5.832031 202.925781 -2.664062 205.59375 0 L 138.59375 0 C 141.257812 -2.664062 143.09375 -5.832031 144.09375 -9.5 C 145.09375 -13.164062 145.59375 -17.863281 145.59375 -23.59375 L 145.59375 -140 C 145.59375 -143.0625 145.425781 -146.289062 145.09375 -149.6875 C 144.757812 -153.09375 144.09375 -155.960938 143.09375 -158.296875 C 142.09375 -160.628906 140.460938 -161.796875 138.203125 -161.796875 C 136.335938 -161.796875 134.269531 -159.59375 132 -155.1875 C 129.726562 -150.789062 127.359375 -144.925781 124.890625 -137.59375 C 122.429688 -130.257812 119.96875 -122.09375 117.5 -113.09375 C 115.03125 -104.09375 112.664062 -94.992188 110.40625 -85.796875 C 108.40625 -77.398438 106.503906 -69.300781 104.703125 -61.5 C 102.898438 -53.695312 101.164062 -46.660156 99.5 -40.390625 C 97.832031 -34.128906 96.128906 -29.195312 94.390625 -25.59375 C 92.660156 -22 90.796875 -20.203125 88.796875 -20.203125 C 87.066406 -20.203125 85.097656 -22.164062 82.890625 -26.09375 C 80.691406 -30.03125 78.425781 -35.234375 76.09375 -41.703125 C 73.757812 -48.171875 71.328125 -55.300781 68.796875 -63.09375 C 66.265625 -70.894531 63.734375 -78.664062 61.203125 -86.40625 C 60.398438 -88.800781 59.265625 -92.265625 57.796875 -96.796875 C 56.328125 -101.328125 54.625 -106.425781 52.6875 -112.09375 C 50.757812 -117.757812 48.695312 -123.492188 46.5 -129.296875 C 44.300781 -135.097656 42.097656 -140.460938 39.890625 -145.390625 C 37.691406 -150.328125 35.5625 -154.296875 33.5 -157.296875 C 31.4375 -160.296875 29.601562 -161.796875 28 -161.796875 C 25.863281 -161.796875 24.257812 -160.628906 23.1875 -158.296875 C 22.125 -155.960938 21.425781 -153.09375 21.09375 -149.6875 C 20.757812 -146.289062 20.59375 -143.0625 20.59375 -140 C 20.59375 -127.195312 22.125 -115.660156 25.1875 -105.390625 C 28.257812 -95.128906 32.0625 -85.832031 36.59375 -77.5 C 41.132812 -69.164062 45.632812 -61.566406 50.09375 -54.703125 C 54.5625 -47.835938 58.328125 -41.367188 61.390625 -35.296875 C 64.460938 -29.234375 66 -23.332031 66 -17.59375 C 66 -11.46875 63.765625 -7.003906 59.296875 -4.203125 C 54.828125 -1.398438 49.660156 0 43.796875 0 L 2 0 C 4.664062 -2.664062 6.5 -5.832031 7.5 -9.5 C 8.5 -13.164062 9 -17.863281 9 -23.59375 Z M 9 -176.40625 "/></g></g></g></svg>