<svg xmlns="http://www.w3.org/2000/svg" xmlns:xlink="http://www.w3.org/1999/xlink" width="500" zoomAndPan="magnify" viewBox="0 0 375 374.999991" height="500" preserveAspectRatio="xMidYMid meet" version="1.0"><defs><clipPath id="11b1c83bfd"><path d="M 75 0 L 300 0 C 341.421875 0 375 33.578125 375 75 L 375 300 C 375 341.421875 341.421875 375 300 375 L 75 375 C 33.578125 375 0 341.421875 0 300 L 0 75 C 0 33.578125 33.578125 0 75 0 Z M 75 0 " clip-rule="nonzero"/></clipPath><clipPath id="8a539c3b91"><path d="M 87.351562 135 L 287.921875 135 L 287.921875 291.773438 L 87.351562 291.773438 Z M 87.351562 135 " clip-rule="nonzero"/></clipPath><clipPath id="d17c4bbbd7"><path d="M 87.351562 83 L 287.921875 83 L 287.921875 239.980469 L 87.351562 239.980469 Z M 87.351562 83 " clip-rule="nonzero"/></clipPath></defs><g clip-path="url(#11b1c83bfd)"><rect x="-37.5" width="450" fill="#f5f5f5" y="-37.499999" height="449.999989" fill-opacity="1"/></g><g clip-path="url(#8a539c3b91)"><path fill="#737373" d="M 189.183594 289.113281 L 164.988281 275.152344 L 165.023438 263.929688 L 152.792969 268.128906 L 127.210938 253.351562 L 127.242188 239.984375 L 115.675781 246.691406 L 111.542969 244.296875 L 87.351562 230.332031 L 87.433594 194.753906 L 87.464844 189.992188 L 91.546875 187.597656 L 181.695312 135.226562 L 219.144531 156.84375 L 223.671875 159.46875 L 223.671875 163.847656 L 223.621094 180.34375 L 246.3125 172.523438 L 283.527344 194.023438 L 287.660156 196.386719 L 287.660156 201.164062 L 287.5625 236.746094 L 193.3125 291.511719 Z M 189.183594 289.113281 " fill-opacity="1" fill-rule="nonzero"/></g><path fill="#ffffff" d="M 281.875 199.742188 L 193.414062 251.15625 L 170.871094 238.148438 L 238.347656 198.933594 L 153.503906 228.117188 L 133.109375 216.335938 L 183.25 167.121094 L 115.773438 206.335938 L 93.234375 193.316406 L 181.710938 141.902344 L 217.90625 162.808594 L 178.027344 202.140625 L 245.71875 178.855469 Z M 281.875 199.742188 " fill-opacity="1" fill-rule="nonzero"/><g clip-path="url(#d17c4bbbd7)"><path fill="#000000" d="M 189.324219 237.089844 L 165.097656 223.148438 L 165.128906 211.945312 L 152.882812 216.132812 L 127.265625 201.382812 L 127.300781 188.035156 L 115.714844 194.734375 L 111.578125 192.339844 L 87.351562 178.398438 L 87.433594 142.871094 L 87.464844 138.117188 L 91.554688 135.726562 L 181.828125 83.433594 L 219.328125 105.015625 L 223.863281 107.640625 L 223.863281 112.011719 L 223.8125 128.480469 L 246.535156 120.675781 L 283.800781 142.144531 L 287.9375 144.503906 L 287.9375 149.273438 L 287.839844 184.800781 L 193.460938 239.484375 Z M 189.324219 237.089844 " fill-opacity="1" fill-rule="nonzero"/></g><path fill="#ffffff" d="M 282.148438 147.851562 L 193.5625 199.1875 L 170.988281 186.203125 L 238.558594 147.042969 L 153.59375 176.1875 L 133.175781 164.421875 L 183.382812 115.28125 L 115.8125 154.4375 L 93.242188 141.433594 L 181.84375 90.101562 L 218.085938 110.972656 L 178.152344 150.246094 L 245.9375 126.996094 Z M 282.148438 147.851562 " fill-opacity="1" fill-rule="nonzero"/></svg>