<svg xmlns="http://www.w3.org/2000/svg" xmlns:xlink="http://www.w3.org/1999/xlink" width="500" zoomAndPan="magnify" viewBox="0 0 375 374.999991" height="500" preserveAspectRatio="xMidYMid meet" version="1.0"><defs><g/><clipPath id="b15c3db568"><path d="M 187.5 0 C 83.945312 0 0 83.945312 0 187.5 C 0 291.054688 83.945312 375 187.5 375 C 291.054688 375 375 291.054688 375 187.5 C 375 83.945312 291.054688 0 187.5 0 Z M 187.5 0 " clip-rule="nonzero"/></clipPath></defs><g clip-path="url(#b15c3db568)"><rect x="-37.5" width="450" fill="#f5f5f5" y="-37.499999" height="449.999989" fill-opacity="1"/></g><path stroke-linecap="butt" transform="matrix(0.710396, 0, 0, 0.710396, 89.182295, 79.160971)" fill="none" stroke-linejoin="miter" d="M 11.977983 49.784025 C 11.977983 42.146339 11.307143 35.894325 9.959963 31.03348 C 8.656772 26.128645 6.22635 21.90015 2.668695 18.342495 L 87.431056 18.342495 C 93.85353 18.342495 98.978313 20.338521 102.794406 24.330572 C 106.615998 28.322624 110.025188 34.596633 113.016477 43.141603 C 116.057255 51.692071 119.482941 62.804931 123.304533 76.474683 C 127.126125 90.149934 132.245409 106.596527 138.667883 125.825458 C 145.046367 106.596527 150.149155 90.149934 153.965248 76.474683 C 157.78684 62.804931 161.218025 51.692071 164.253304 43.141603 C 167.294081 34.596633 170.719767 28.322624 174.541359 24.330572 C 178.357453 20.338521 183.46024 18.342495 189.838725 18.342495 L 274.144694 18.342495 C 270.58704 21.90015 268.134622 26.128645 266.792941 31.03348 C 265.445761 35.894325 264.769422 42.146339 264.769422 49.784025 L 264.769422 253.55461 C 264.769422 261.192296 265.445761 267.466305 266.792941 272.37114 C 268.134622 277.231985 270.58704 281.438485 274.144694 285.001639 L 184.823916 285.001639 C 188.34308 281.438485 190.773503 277.231985 192.115184 272.37114 C 193.462364 267.466305 194.133205 261.192296 194.133205 253.55461 L 194.133205 98.348486 C 194.133205 94.273954 193.896761 89.973976 193.418374 85.459549 C 192.983978 80.901132 192.093189 77.063044 190.751508 73.939786 C 189.448318 70.811029 187.276334 69.2494 184.241055 69.2494 C 181.766643 69.2494 179.011797 72.202198 175.97102 78.102297 C 172.97973 83.963904 169.828979 91.777547 166.529763 101.543227 C 163.236045 111.308907 159.936829 122.201819 156.637613 134.221963 C 153.382387 146.203616 150.237134 158.333734 147.196356 170.612317 C 144.551485 181.813156 142.011088 192.618089 139.580666 203.038113 C 137.194233 213.408649 134.89028 222.783921 132.679805 231.158432 C 130.463832 239.494451 128.187373 246.070889 125.844929 250.887744 C 123.540977 255.66061 121.066565 258.047043 118.421693 258.047043 C 116.07925 258.047043 113.428879 255.446161 110.48158 250.2334 C 107.572771 244.982147 104.553988 238.037297 101.43073 229.404348 C 98.345963 220.765901 95.112731 211.25866 91.731035 200.888124 C 88.343839 190.473598 84.956644 180.119558 81.574948 169.831502 C 80.530196 166.620265 79.034551 162.001363 77.082515 155.969296 C 75.130479 149.89324 72.848521 143.07486 70.247639 135.525153 C 67.685248 127.969948 64.930402 120.332263 61.977604 112.606599 C 59.068795 104.880934 56.137991 97.74363 53.190691 91.189187 C 50.281883 84.590755 47.439058 79.295513 44.662218 75.303462 C 41.923868 71.267421 39.471451 69.2494 37.304966 69.2494 C 34.484136 69.2494 32.356142 70.811029 30.920983 73.939786 C 29.491322 77.063044 28.556544 80.901132 28.122148 85.459549 C 27.687751 89.973976 27.473302 94.273954 27.473302 98.348486 C 27.473302 115.405434 29.513317 130.796277 33.593348 144.510019 C 37.673378 158.179771 42.726678 170.573826 48.764243 181.681187 C 54.8403 192.794047 60.850372 202.928139 66.794459 212.083464 C 72.738547 221.244287 77.753356 229.86074 81.833386 237.932822 C 85.957406 246.004904 88.019416 253.879033 88.019416 261.560708 C 88.019416 269.720769 85.022628 275.670356 79.034551 279.39847 C 73.090463 283.132083 66.211598 285.001639 58.397954 285.001639 L 2.668695 285.001639 C 6.22635 281.438485 8.656772 277.231985 9.959963 272.37114 C 11.307143 267.466305 11.977983 261.192296 11.977983 253.55461 Z M 11.977983 49.784025 " stroke="#31416a" stroke-width="20.000025" stroke-opacity="1" stroke-miterlimit="4"/><g fill="#9baad3" fill-opacity="1"><g transform="translate(89.182295, 281.623836)"><g><path d="M 8.53125 -167.078125 C 8.53125 -172.515625 8.054688 -176.96875 7.109375 -180.4375 C 6.160156 -183.914062 4.421875 -186.914062 1.890625 -189.4375 L 62.140625 -189.4375 C 66.679688 -189.4375 70.304688 -188.015625 73.015625 -185.171875 C 75.734375 -182.328125 78.164062 -177.875 80.3125 -171.8125 C 82.46875 -165.757812 84.898438 -157.867188 87.609375 -148.140625 C 90.328125 -138.410156 93.957031 -126.726562 98.5 -113.09375 C 103.050781 -126.726562 106.679688 -138.410156 109.390625 -148.140625 C 112.109375 -157.867188 114.539062 -165.757812 116.6875 -171.8125 C 118.832031 -177.875 121.265625 -182.328125 123.984375 -185.171875 C 126.703125 -188.015625 130.332031 -189.4375 134.875 -189.4375 L 194.734375 -189.4375 C 192.210938 -186.914062 190.476562 -183.914062 189.53125 -180.4375 C 188.582031 -176.96875 188.109375 -172.515625 188.109375 -167.078125 L 188.109375 -22.359375 C 188.109375 -16.921875 188.582031 -12.460938 189.53125 -8.984375 C 190.476562 -5.515625 192.210938 -2.519531 194.734375 0 L 131.28125 0 C 133.800781 -2.519531 135.535156 -5.515625 136.484375 -8.984375 C 137.429688 -12.460938 137.90625 -16.921875 137.90625 -22.359375 L 137.90625 -132.609375 C 137.90625 -135.515625 137.75 -138.578125 137.4375 -141.796875 C 137.125 -145.015625 136.492188 -147.726562 135.546875 -149.9375 C 134.597656 -152.144531 133.050781 -153.25 130.90625 -153.25 C 129.132812 -153.25 127.175781 -151.164062 125.03125 -147 C 122.882812 -142.832031 120.640625 -137.273438 118.296875 -130.328125 C 115.960938 -123.378906 113.628906 -115.644531 111.296875 -107.125 C 108.960938 -98.601562 106.71875 -89.984375 104.5625 -81.265625 C 102.675781 -73.304688 100.878906 -65.632812 99.171875 -58.25 C 97.460938 -50.863281 95.816406 -44.203125 94.234375 -38.265625 C 92.660156 -32.328125 91.050781 -27.65625 89.40625 -24.25 C 87.769531 -20.84375 86.003906 -19.140625 84.109375 -19.140625 C 82.460938 -19.140625 80.597656 -21 78.515625 -24.71875 C 76.429688 -28.445312 74.285156 -33.375 72.078125 -39.5 C 69.867188 -45.625 67.5625 -52.378906 65.15625 -59.765625 C 62.757812 -67.148438 60.363281 -74.507812 57.96875 -81.84375 C 57.207031 -84.113281 56.128906 -87.394531 54.734375 -91.6875 C 53.347656 -95.976562 51.738281 -100.804688 49.90625 -106.171875 C 48.082031 -111.546875 46.128906 -116.976562 44.046875 -122.46875 C 41.960938 -127.96875 39.878906 -133.050781 37.796875 -137.71875 C 35.710938 -142.394531 33.691406 -146.148438 31.734375 -148.984375 C 29.773438 -151.828125 28.035156 -153.25 26.515625 -153.25 C 24.492188 -153.25 22.976562 -152.144531 21.96875 -149.9375 C 20.957031 -147.726562 20.296875 -145.015625 19.984375 -141.796875 C 19.671875 -138.578125 19.515625 -135.515625 19.515625 -132.609375 C 19.515625 -120.484375 20.960938 -109.554688 23.859375 -99.828125 C 26.765625 -90.109375 30.363281 -81.300781 34.65625 -73.40625 C 38.957031 -65.507812 43.222656 -58.3125 47.453125 -51.8125 C 51.679688 -45.3125 55.25 -39.1875 58.15625 -33.4375 C 61.0625 -27.6875 62.515625 -22.097656 62.515625 -16.671875 C 62.515625 -10.859375 60.398438 -6.625 56.171875 -3.96875 C 51.941406 -1.320312 47.046875 0 41.484375 0 L 1.890625 0 C 4.421875 -2.519531 6.160156 -5.515625 7.109375 -8.984375 C 8.054688 -12.460938 8.53125 -16.921875 8.53125 -22.359375 Z M 8.53125 -167.078125 "/></g></g></g></svg>