<svg xmlns="http://www.w3.org/2000/svg" xmlns:xlink="http://www.w3.org/1999/xlink" width="500" zoomAndPan="magnify" viewBox="0 0 375 374.999991" height="500" preserveAspectRatio="xMidYMid meet" version="1.0"><defs><clipPath id="01ca9c31bf"><path d="M 7.828125 93 L 367.660156 93 L 367.660156 374.566406 L 7.828125 374.566406 Z M 7.828125 93 " clip-rule="nonzero"/></clipPath><clipPath id="71e30a2c32"><path d="M 7.828125 0 L 367.660156 0 L 367.660156 281 L 7.828125 281 Z M 7.828125 0 " clip-rule="nonzero"/></clipPath></defs><rect x="-37.5" width="450" fill="#ffffff" y="-37.499999" height="449.999989" fill-opacity="1"/><rect x="-37.5" width="450" fill="#ffffff" y="-37.499999" height="449.999989" fill-opacity="1"/><g clip-path="url(#01ca9c31bf)"><path fill="#737373" d="M 190.519531 369.800781 L 147.113281 344.746094 L 147.171875 324.617188 L 125.234375 332.148438 L 79.339844 305.640625 L 79.398438 281.65625 L 58.644531 293.695312 L 51.234375 289.394531 L 7.828125 264.34375 L 7.976562 200.511719 L 8.035156 191.972656 L 15.359375 187.671875 L 177.089844 93.71875 L 244.269531 132.5 L 252.394531 137.214844 L 252.394531 145.070312 L 252.304688 174.660156 L 293.011719 160.636719 L 359.777344 199.207031 L 367.1875 203.445312 L 367.1875 212.015625 L 367.011719 275.847656 L 197.929688 374.097656 Z M 190.519531 369.800781 " fill-opacity="1" fill-rule="nonzero"/></g><path fill="#ffffff" d="M 356.8125 209.464844 L 198.109375 301.699219 L 157.667969 278.367188 L 278.71875 208.011719 L 126.507812 260.371094 L 89.921875 239.230469 L 179.875 150.941406 L 58.824219 221.292969 L 18.382812 197.933594 L 177.117188 105.699219 L 242.046875 143.203125 L 170.507812 213.761719 L 291.941406 171.988281 Z M 356.8125 209.464844 " fill-opacity="1" fill-rule="nonzero"/><g clip-path="url(#71e30a2c32)"><path fill="#000000" d="M 190.773438 276.46875 L 147.308594 251.453125 L 147.367188 231.351562 L 125.398438 238.871094 L 79.4375 212.40625 L 79.5 188.457031 L 58.714844 200.476562 L 51.292969 196.183594 L 7.828125 171.167969 L 7.976562 107.433594 L 8.035156 98.90625 L 15.371094 94.613281 L 177.324219 0.800781 L 244.597656 39.523438 L 252.734375 44.230469 L 252.734375 52.074219 L 252.644531 81.617188 L 293.410156 67.617188 L 360.269531 106.128906 L 367.691406 110.363281 L 367.691406 118.917969 L 367.511719 182.65625 L 198.195312 280.761719 Z M 190.773438 276.46875 " fill-opacity="1" fill-rule="nonzero"/></g><path fill="#ffffff" d="M 357.300781 116.375 L 198.375 208.46875 L 157.878906 185.171875 L 279.097656 114.921875 L 126.675781 167.203125 L 90.039062 146.09375 L 180.113281 57.9375 L 58.894531 128.183594 L 18.398438 104.859375 L 177.355469 12.761719 L 242.371094 50.210938 L 170.734375 120.664062 L 292.339844 78.953125 Z M 357.300781 116.375 " fill-opacity="1" fill-rule="nonzero"/></svg>