<svg xmlns="http://www.w3.org/2000/svg" xmlns:xlink="http://www.w3.org/1999/xlink" width="500" zoomAndPan="magnify" viewBox="0 0 375 374.999991" height="500" preserveAspectRatio="xMidYMid meet" version="1.0"><defs><clipPath id="dd033061af"><path d="M 53.058594 107.027344 L 322 107.027344 L 322 317.777344 L 53.058594 317.777344 Z M 53.058594 107.027344 " clip-rule="nonzero"/></clipPath><clipPath id="76573aef07"><path d="M 53.058594 38 L 322.308594 38 L 322.308594 248 L 53.058594 248 Z M 53.058594 38 " clip-rule="nonzero"/></clipPath></defs><g clip-path="url(#dd033061af)"><path fill="#737373" d="M 189.757812 314.207031 L 157.28125 295.464844 L 157.324219 280.398438 L 140.910156 286.035156 L 106.566406 266.203125 L 106.613281 248.253906 L 91.082031 257.261719 L 85.535156 254.042969 L 53.058594 235.300781 L 53.167969 187.535156 L 53.214844 181.148438 L 58.691406 177.929688 L 179.710938 107.628906 L 229.980469 136.644531 L 236.058594 140.171875 L 236.058594 146.050781 L 235.992188 168.191406 L 266.449219 157.699219 L 316.410156 186.558594 L 321.957031 189.730469 L 321.957031 196.144531 L 321.824219 243.90625 L 195.304688 317.425781 Z M 189.757812 314.207031 " fill-opacity="1" fill-rule="nonzero"/></g><path fill="#ffffff" d="M 314.191406 194.234375 L 195.4375 263.25 L 165.179688 245.792969 L 255.757812 193.148438 L 141.863281 232.324219 L 114.488281 216.507812 L 181.792969 150.445312 L 91.214844 203.085938 L 60.957031 185.605469 L 179.730469 116.589844 L 228.316406 144.652344 L 174.785156 197.453125 L 265.652344 166.195312 Z M 314.191406 194.234375 " fill-opacity="1" fill-rule="nonzero"/><g clip-path="url(#76573aef07)"><path fill="#000000" d="M 189.949219 244.371094 L 157.425781 225.652344 L 157.46875 210.613281 L 141.03125 216.238281 L 106.640625 196.4375 L 106.6875 178.515625 L 91.136719 187.507812 L 85.582031 184.296875 L 53.058594 165.578125 L 53.167969 117.886719 L 53.214844 111.507812 L 58.699219 108.296875 L 179.886719 38.101562 L 230.226562 67.074219 L 236.3125 70.597656 L 236.3125 76.464844 L 236.246094 98.574219 L 266.746094 88.09375 L 316.777344 116.914062 L 322.332031 120.082031 L 322.332031 126.484375 L 322.195312 174.175781 L 195.503906 247.582031 Z M 189.949219 244.371094 " fill-opacity="1" fill-rule="nonzero"/></g><path fill="#ffffff" d="M 314.554688 124.578125 L 195.636719 193.492188 L 165.335938 176.058594 L 256.039062 123.492188 L 141.984375 162.613281 L 114.574219 146.816406 L 181.972656 80.851562 L 91.269531 133.417969 L 60.96875 115.960938 L 179.90625 47.050781 L 228.558594 75.070312 L 174.953125 127.789062 L 265.949219 96.578125 Z M 314.554688 124.578125 " fill-opacity="1" fill-rule="nonzero"/></svg>